<svg width="26" height="25" viewBox="0 0 26 25" fill="none" xmlns="http://www.w3.org/2000/svg">
<path d="M13.5017 24.6302C8.49493 25.2846 4.30557 25.2981 4.677 19.9199C4.86758 17.1522 7.8136 15.4625 9.22287 13.9277C10.9119 12.0852 11.2292 10.6612 13.6277 10.54C15.967 10.4196 17.4543 13.3373 19.0993 15.4253C20.8455 17.6398 22.6734 18.7149 22.0154 21.9064C21.431 24.7455 19.3762 25.5679 13.5017 24.6302Z" fill="#0D96A0"/>
<path d="M9.63305 0.148968C12.7799 0.51614 14.5224 10.6131 8.72782 9.06601C4.41756 7.91208 6.40032 -0.135593 9.63305 0.148968Z" fill="#0D96A0"/>
<path d="M3.68594 7.08376C6.84603 7.26569 9.05339 17.2372 3.19419 16.0408C-1.16551 15.145 0.361102 6.64885 3.68594 7.08376Z" fill="#0D96A0"/>
<path d="M16.2044 0.133742C13.1485 1.09112 12.7989 11.3841 18.3057 8.76375C22.4064 6.81286 19.2281 -1.11941 16.2044 0.133742Z" fill="#0D96A0"/>
<path d="M23.5202 7.39318C20.3684 7.08295 17.0054 15.4537 22.8299 16.3321C27.2173 16.9922 26.665 7.44846 23.5202 7.39318Z" fill="#0D96A0"/>
</svg>
